<svg xmlns="http://www.w3.org/2000/svg" viewBox="0 0 97.38 100.6"><defs><style>.cls-1{fill:#ee732c;}</style></defs><title>Asset 1</title><g id="Layer_2" data-name="Layer 2"><g id="Layer_1-2" data-name="Layer 1"><path class="cls-1" d="M48.66,100.6A54,54,0,0,1,30,97.34C11,90.33.06,73.61.07,51.45A47.58,47.58,0,0,1,12.7,16.61,51.41,51.41,0,0,1,48.63,0c14.76-.52,27.2,3.68,36,12.14,8.21,7.9,12.74,19.17,12.77,31.73A39.49,39.49,0,0,1,83,73.9c-5.7,4.52-11.91,6.29-17.48,5a16.71,16.71,0,0,1-10.06-7,22.92,22.92,0,0,1-7.3,3.17c-.57.14-1.13.24-1.69.33-.17.29-.36.58-.55.87a13.86,13.86,0,0,1-12.79,6C26.64,81.72,20.86,76.86,17.28,69c-3.89-8.58-4.81-23.7,12.93-47,.27-.35.47-.61.58-.77a2,2,0,0,1,3.65.23c.37,1.06-.08,1.65-1.07,2.94-16.55,21.75-15.92,35.37-12.47,43,3,6.56,7.56,10.57,12.58,11a9.89,9.89,0,0,0,8-2.88A15.21,15.21,0,0,1,31,69.09c-3.25-4.51-4-9.25-2.05-13a8.91,8.91,0,0,1,8.11-4.87c3.8.05,7.11,2.38,9.08,6.41A20.51,20.51,0,0,1,48.2,71a20.29,20.29,0,0,0,5.28-2.5A29.38,29.38,0,0,1,51.82,64C48.55,52.5,50.9,36.2,56.66,30.42,59.08,28,61.15,28.51,62.18,29c5.09,2.61,5.61,17.38,4,27a23.59,23.59,0,0,1-7.59,13.4A12.91,12.91,0,0,0,66.43,75c4.36,1,9.37-.46,14.1-4.22A35.35,35.35,0,0,0,93.4,43.92c0-11.47-4.12-21.73-11.54-28.88-8-7.69-19.43-11.51-33.09-11A47.36,47.36,0,0,0,15.64,19.3,43.62,43.62,0,0,0,4,51.29v.11C4,71.82,14,87.2,31.39,93.6c20.48,7.53,45.07.66,59.79-16.71a2,2,0,0,1,3,2.58A60.42,60.42,0,0,1,48.66,100.6M37,55.21a5,5,0,0,0-4.48,2.72c-1.22,2.37-.59,5.59,1.76,8.83a11.26,11.26,0,0,0,9.64,4.87c1.29-3.51.86-7.83-1.3-12.24-1.29-2.63-3.31-4.16-5.56-4.18H37M60.36,32.57a2.54,2.54,0,0,0-.89.65c-5.14,5.17-6.4,20.62-3.83,29.65a26.94,26.94,0,0,0,1,3,18.88,18.88,0,0,0,5.6-10.44A58.9,58.9,0,0,0,62.72,40c-.66-5.64-2-7.26-2.36-7.39M30.69,22.75h0Zm0,0h0m0,0h0m0,0Z"/></g></g></svg>